<?xml version="1.0" encoding="UTF-8" standalone="no"?>
<svg
   width="29"
   height="29"
   fill="none"
   version="1.1"
   id="svg16"
   sodipodi:docname="31ff16eef888637505a9c58ca047dd60.svg"
   inkscape:version="1.2.1 (9c6d41e410, 2022-07-14)"
   xmlns:inkscape="http://www.inkscape.org/namespaces/inkscape"
   xmlns:sodipodi="http://sodipodi.sourceforge.net/DTD/sodipodi-0.dtd"
   xmlns="http://www.w3.org/2000/svg"
   xmlns:svg="http://www.w3.org/2000/svg">
  <defs
     id="defs20">
    <filter
       style="color-interpolation-filters:sRGB;"
       inkscape:label="Colorize"
       id="filter341"
       x="0"
       y="0"
       width="1"
       height="1">
      <feComposite
         in2="SourceGraphic"
         operator="arithmetic"
         k1="0"
         k2="1.38778e-16"
         result="composite1"
         id="feComposite327" />
      <feColorMatrix
         in="composite1"
         values="1"
         type="saturate"
         result="colormatrix1"
         id="feColorMatrix329" />
      <feFlood
         flood-opacity="1"
         flood-color="rgb(251,251,251)"
         result="flood1"
         id="feFlood331" />
      <feBlend
         in="flood1"
         in2="colormatrix1"
         mode="multiply"
         result="blend1"
         id="feBlend333" />
      <feBlend
         in2="blend1"
         mode="screen"
         result="blend2"
         id="feBlend335" />
      <feColorMatrix
         in="blend2"
         values="1"
         type="saturate"
         result="colormatrix2"
         id="feColorMatrix337" />
      <feComposite
         in="colormatrix2"
         in2="SourceGraphic"
         operator="in"
         k2="1"
         result="composite2"
         id="feComposite339" />
    </filter>
  </defs>
  <sodipodi:namedview
     id="namedview18"
     pagecolor="#ffffff"
     bordercolor="#666666"
     borderopacity="1.0"
     inkscape:showpageshadow="2"
     inkscape:pageopacity="0.0"
     inkscape:pagecheckerboard="0"
     inkscape:deskcolor="#d1d1d1"
     showgrid="false"
     inkscape:zoom="28.862069"
     inkscape:cx="14.482676"
     inkscape:cy="14.482676"
     inkscape:window-width="1920"
     inkscape:window-height="1017"
     inkscape:window-x="-8"
     inkscape:window-y="1072"
     inkscape:window-maximized="1"
     inkscape:current-layer="svg16" />
  <path
     opacity=".01"
     fill="#000"
     d="M0 0h28.8v28.8H0z"
     id="path12" />
  <path
     d="M12.33 8.37c.36.36.36.81.09 1.17l-.09.09-3.87 3.87H22.5c.54 0 .9.36.9.9 0 .45-.36.81-.81.9H8.46l3.87 3.87c.36.36.36.81.09 1.17l-.09.09c-.36.36-.81.36-1.17.09l-.09-.09-5.4-5.4-.09-.09-.09-.09-.09-.09v-.72l.09-.09.09-.09.09-.09 5.4-5.4a.87.87 0 0 1 1.26 0Z"
     fill="#3D4351"
     id="path14"
     style="filter:url(#filter341)" />
</svg>
